<?xml version="1.0" encoding="UTF-8"?>
<svg id="Layer_1" data-name="Layer 1" xmlns="http://www.w3.org/2000/svg" viewBox="0 0 97.77 151.3">
  <defs>
    <style>
      .cls-1 {
        letter-spacing: -.02em;
      }

      .cls-2 {
        fill: #ed1c24;
      }

      .cls-3 {
        fill: #f8971e;
      }

      .cls-4 {
        fill: #b1b3b6;
      }

      .cls-5 {
        letter-spacing: -.01em;
      }

      .cls-6 {
        stroke: #ed1c24;
        stroke-width: .5px;
      }

      .cls-6, .cls-7 {
        fill: none;
        stroke-miterlimit: 10;
      }

      .cls-8 {
        fill: #0a8dcd;
      }

      .cls-9 {
        fill: #fff;
        font-family: Rubik-Bold, Rubik;
        font-size: 9.3px;
        font-weight: 700;
      }

      .cls-10 {
        letter-spacing: -.01em;
      }

      .cls-11 {
        fill: #f26322;
      }

      .cls-12 {
        letter-spacing: 0em;
      }

      .cls-13 {
        letter-spacing: 0em;
      }

      .cls-7 {
        stroke: #0a8dcd;
      }
    </style>
  </defs>
  <g>
    <path d="M48.89,0C22.2,0,0,1.52,0,4.85c0,2.86,2.55,3.08,2.55,6.06s0,20.68,0,24.25S0,39.32,0,42.45s2.55,3.72,2.55,7.28v11.27s0,6.45,0,6.45C2.55,71.02,0,71.61,0,74.74s2.55,3.72,2.55,7.28v18.02C2.55,103.61,0,104.2,0,107.33s2.55,3.72,2.55,7.28v.99c0,3.57,0,20.62,0,23.6s-1.99,3.21-1.99,6.06c0,3.33,21.64,6.03,48.32,6.03,26.69,0,48.32-2.7,48.32-6.03,0-2.86-1.99-3.08-1.99-6.06v-24.59c0-3.57,2.55-4.15,2.55-7.28s-2.55-3.72-2.55-7.28v-18.02c0-3.57,2.55-4.15,2.55-7.28s-2.55-3.72-2.55-7.28v-17.72c0-3.57,2.55-4.15,2.55-7.28s-2.55-3.72-2.55-7.28V10.92c0-2.99,2.55-3.21,2.55-6.06,0-3.33-22.2-4.85-48.89-4.85Z"/>
    <path class="cls-4" d="M77.8,13.48v23.52s3.77-.28,3.77-.28V12.98c-2.49.14-3.77.5-3.77.5Z"/>
    <path class="cls-4" d="M77.8,117.68v23.52s3.77-.28,3.77-.28v-23.74c-2.49.14-3.77.5-3.77.5Z"/>
    <rect class="cls-4" x="83.18" y="12.98" width=".5" height="23.58"/>
    <rect class="cls-4" x="83.18" y="117.4" width=".5" height="23.58"/>
    <ellipse class="cls-4" cx="48.89" cy="4.63" rx="46.94" ry="2.34"/>
  </g>
  <text class="cls-9" transform="translate(30.91 81.9)"><tspan class="cls-10" x="0" y="0">B</tspan><tspan class="cls-13" x="6.49" y="0">ARRE</tspan><tspan class="cls-1" x="32.06" y="0">L</tspan><tspan x="-.58" y="9">M</tspan><tspan class="cls-5" x="7.19" y="9">A</tspan><tspan class="cls-12" x="13.74" y="9">S</tspan><tspan x="19.94" y="9">TER</tspan><tspan x="8.88" y="17.99">BBQ</tspan></text>
  <g>
    <path class="cls-2" d="M75.33,88.67c-.39-2.35,2.64-5.19,4.7-10.68,2.06-5.49-3.53-9.79-2.35-14.59-2.84,2.74.39,9.99-2.84,12.63,0,0-3.13-.78-2.35-8.13.78-7.34-5.19-8.32-4.31-14.98,0,0-2.84,4.01-2.43,10.09-6.73-1.37-1.39-13.32-5.31-17.82,1.27,2.84,1.37,8.32-4.8,10.18,3.53-7.15-5.48-12.24-4.21-17.82-6.85,4.01-3.82,15.47-7.15,15.67-3.33.2-3.62-5.68-2.35-9.79-.78.59-3.04,2.84-3.62,8.23-.59,5.39-.78,7.44-7.15,11.55-1.08-3.43,3.53-8.42,2.15-13.42-.39,3.13-1.08,5.19-4.11,6.85-3.04,1.66-5.39,3.72-5.19,8.83.2,5.11,1.47,8.11-1.37,12.51-2.74-2.45-1.37-9.2-3.92-13.31,0,0,1.37,4.11.2,6.85-1.18,2.74-3.72,6.95-1.96,12.53,1.76,5.58,8.03,7.15,7.25,13.32-1.08-3.72-6.36-3.43-8.42-7.93,0,4.5,1.27,10.38,8.81,13.42,7.54,3.04,8.72,4.7,13.68,7.01,3.46,1.61,7.26,2.69,11.33,2.69,6.14,0,11.77-2.2,16.14-5.85,4.33-3.01,4.44-4.36,8.68-7.52,7.8-5.81,6.96-10.53,7.55-17.28,0,0-2.64,5.29-6.66,6.76ZM75.74,96.52c-1.81,1.38-3.51,2.25-6.85,5.67-4.26,4.36-11.86,9.41-17.85,9.41-10.43,0-15.07-4.56-18.47-6.45-3.4-1.88-12.97-2.68-13.91-10.36,4.41.73,6.52,5.79,6.52,5.79,1.45-6.01,1.38-6.45-3.04-11.95-4.42-5.5-3.98-8.55-1.52-13.98-.14,4.78,2.46,6.3,2.46,6.3,3.98-6.16,2.9-8.76,2.61-14.92-.29-6.16,2.17-8.26,5.94-9.34-3.4,5.29-.58,9.49-.58,9.49,2.1-2.82,7.95-5.83,7.82-11.44-.13-5.61,1.81-7.61,1.81-7.61-1.09,5.07,2.12,8.59,4.36,8.59s1.35-2.41,2.01-7c.5-3.49,2.55-6.13,3.98-8.04.22,2.9,6.95,11.44,2.1,16.37,2.87-.05,4.67-.73,5.8-1.56.31-.45.51-.73.55-.69,0,.06.02.14.03.2,1.39-1.35,1.37-2.88,1.37-2.88.72,3.04-1.52,11.3,6.3,12.75-1.45-4.2,1.09-8.85,1.09-8.85-.87,5.16,2.97,6.82,2.75,12.91-.22,6.08,2.32,9.2,4.35,9.42,1.2-1.52,1.74-3.2,1.94-4.72.01-.12.02-.2.02-.2,0,0,0,.02,0,.03.31-2.54-.3-4.6-.3-4.6,3.19,4.65,2.39,9.34-.07,13.18-1.8,2.8-2.55,6.17-2.83,7.8.08.3.2.59.32.88,4.71-.93,6.42-6.14,6.42-6.14,0,6.58-3.34,10.56-5.15,11.94Z"/>
    <path class="cls-11" d="M62.81,66.1c3.09,1.58,6.11,2.09,6.33-2.01,1.87,2.66.07,13.74,5.68,14.67,2-1.06,2.43-4.3,2.5-5.12-.21,1.52-.75,3.2-1.94,4.72-2.03-.22-4.56-3.33-4.35-9.42.22-6.08-3.62-7.75-2.75-12.91,0,0-2.54,4.65-1.09,8.85-7.82-1.45-5.58-9.71-6.3-12.75,0,0,.02,1.52-1.37,2.88.4,3.11.26,9.54,3.28,11.09Z"/>
    <path class="cls-11" d="M74.15,89.85c.28-1.62,1.03-4.99,2.83-7.8,2.46-3.84,3.27-8.53.07-13.18,0,0,.61,2.05.3,4.6,1.77,4.41-4.65,10.93-3.2,16.38Z"/>
    <path class="cls-11" d="M74.47,90.72c.05.11.08.23.14.34-.11,1.35-1.66,3.36-4.19,5.49-3.74,7.62-11.58,12.87-20.64,12.87-6.08,0-11.6-2.36-15.71-6.21-5.96-1.08-7.65-4.23-7.65-4.23,2.88.65,3.45,1.37,3.45,1.37-.22-2.09-2.73-5.97-3.45-10.07-.72-4.1-2.52-6.83-2.52-6.83,2.01.79,2.52,1.73,2.52,1.73.65-3.31-.29-14.17,2.95-17.34.36,1.8.14,3.67.14,3.67,2.52-2.37,1.08-4.46,6.04-7.27s5.18-8.27,5.18-8.27c1.44,2.37.86,5.9.86,5.9,2.01-4.6,9.71-6.11,8.63-12.73,2.59,3.17-1.87,10.86,1.73,11.8,2.86.74,5.8-3.68,7-5.43-1.14.83-2.94,1.51-5.8,1.56,4.85-4.93-1.88-13.47-2.1-16.37-1.43,1.92-3.48,4.55-3.98,8.04-.66,4.59.23,7-2.01,7s-5.45-3.52-4.36-8.59c0,0-1.94,2-1.81,7.61.13,5.61-5.72,8.62-7.82,11.44,0,0-2.82-4.2.58-9.49-3.77,1.09-6.23,3.19-5.94,9.34.29,6.16,1.38,8.76-2.61,14.92,0,0-2.61-1.52-2.46-6.3-2.46,5.43-2.9,8.47,1.52,13.98,4.42,5.5,4.49,5.94,3.04,11.95,0,0-2.11-5.06-6.52-5.79.94,7.68,10.5,8.47,13.91,10.36,3.4,1.88,8.04,6.45,18.47,6.45,5.99,0,13.59-5.05,17.85-9.41,3.34-3.42,5.04-4.29,6.85-5.67,1.81-1.38,5.15-5.36,5.15-11.94,0,0-1.71,5.21-6.42,6.14Z"/>
    <path class="cls-3" d="M59.5,54.81s-.24.24-.55.69c.21-.16.41-.32.58-.48,0-.07-.02-.14-.03-.2Z"/>
    <path class="cls-3" d="M74.47,90.72c-.13-.29-.24-.58-.32-.88-.1.6-.14.97-.14.97.16-.02.31-.06.47-.09Z"/>
    <path class="cls-3" d="M77.34,73.44s0,.07-.02.2c0-.06.02-.11.02-.17,0,0,0-.02,0-.03Z"/>
    <path class="cls-3" d="M51.95,60.92c-3.6-.94.86-8.63-1.73-11.8,1.08,6.62-6.62,8.13-8.63,12.73,0,0,.58-3.52-.86-5.9,0,0-.22,5.47-5.18,8.27s-3.52,4.89-6.04,7.27c0,0,.22-1.87-.14-3.67-3.24,3.17-2.3,14.03-2.95,17.34,0,0-.5-.94-2.52-1.73,0,0,1.8,2.73,2.52,6.83.72,4.1,3.24,7.98,3.45,10.07,0,0-.58-.72-3.45-1.37,0,0,1.69,3.15,7.65,4.23-4.48-4.19-7.28-10.16-7.28-16.77,0-12.7,10.29-22.99,22.99-22.99s22.99,10.29,22.99,22.99c0,3.63-1.97,9.79-3.47,12.84,2.53-2.13,7.7-5.27,7.82-8.46-.06-.11-2.58.02-2.63-.09-.16.03-.3.07-.47.09,0,0,.04-.37.14-.97-1.45-5.45,4.97-11.97,3.2-16.38,0,.06-.02.11-.02.17-.08.83-.5,4.06-2.5,5.12-5.61-.94-3.81-12.01-5.68-14.67-.22,4.1-3.24,3.6-6.33,2.01-3.03-1.55-2.89-7.98-3.28-11.09-.17.16-.36.33-.58.48-1.2,1.74-4.14,6.17-7,5.43Z"/>
  </g>
  <circle class="cls-7" cx="49.78" cy="86.44" r="22.99"/>
  <line class="cls-6" x1="36.78" y1="73.12" x2="61.89" y2="73.12"/>
  <line class="cls-6" x1="43.06" y1="102.41" x2="55.62" y2="102.41"/>
  <g>
    <g>
      <path class="cls-8" d="M48.89,68.24l-.17.34-1.37.2.99.97-.23,1.37,1.23-.64.66.35c-.04-.67-.25-1.78-1.11-2.58Z"/>
      <path class="cls-8" d="M50.33,69.75l.99-.97-1.37-.2-.61-1.24-.45.9c.85.8,1.06,1.91,1.11,2.58l.56.3-.23-1.37Z"/>
    </g>
    <g>
      <path class="cls-8" d="M53.63,68.93l-.13.26-1.04.15.76.74-.18,1.04.93-.49.5.26c-.03-.51-.19-1.35-.84-1.96Z"/>
      <path class="cls-8" d="M54.72,70.07l.75-.74-1.04-.15-.47-.95-.34.69c.65.61.81,1.45.84,1.96l.43.23-.18-1.04Z"/>
    </g>
    <g>
      <path class="cls-8" d="M44.37,68.93l-.13.26-1.04.15.76.74-.18,1.04.93-.49.5.26c-.03-.51-.19-1.35-.84-1.96Z"/>
      <path class="cls-8" d="M45.46,70.07l.75-.74-1.04-.15-.47-.95-.34.69c.65.61.81,1.45.84,1.96l.43.23-.18-1.04Z"/>
    </g>
  </g>
  <path class="cls-8" d="M27.65,78.36c.45-.91.79-5.86.79-5.86.43.42.56.99.56.99,1.89-1.61,1.64-1.2,4.52-5.4,1.38-2.02,5.93-4.13,6.29-5.62.76,1.04-.8,2.8,1.12,1.84s3.72-3.04,6.37-4.12c.88,2.13,2.84,2.27,5.16,2.27s3.91-.17,5.35-1.86c-.08,3.05,3.57,5.26,5.4,7.17s3.28,2.88,3.28,2.88c2.25-.4,2.3-1.43,2.3-1.43.6,3.09,1.15,6.13,1.15,6.13,0,0-5.06-9.07-14.05-11.04s-17.08.61-22.21,5.71c-3.6,4.05-6.04,8.34-6.04,8.34Z"/>
</svg>